<svg height="48" viewBox="0 0 25 48" width="25" xmlns="http://www.w3.org/2000/svg">
	<g fill="#afafaf" transform="matrix(-1 0 0 1 26 0)">
		<path d="m19.1392451 20.3771429s-1.99575-2.6102858-.70425-6.2331429c1.28925-3.6251429 4.30425-5.00114286 4.30425-5.00114286s2.25225 3.10857146.99225 6.64228576c-1.25325 3.5337142-4.59225 4.592-4.59225 4.592z" />
		<path d="m15.9525 20.4251429s-3.48525-.2857143-5.48325-3.4491429c-1.99575-3.1634286-.47025-6.7017143-.47025-6.7017143s3.2355.6674286 5.2875 3.9131429c2.0475 3.248.666 6.2377143.666 6.2377143z" />
		<path d="m15.6026965 24.5994032c1.604696 3.4842621-.1563318 6.2717082-.1563318 6.2717082s-3.421897-.7355023-4.9863179-4.1284889c-1.55765545-3.3975742.4163661-6.7064917.4163661-6.7064917s3.1215815 1.0812948 4.7262836 4.5632724z" transform="matrix(.98480775 -.17364818 .17364818 .98480775 -4.221421 2.65618)" />
		<path d="m7.73221109 27.4240056s3.00409501 1.3767646 4.28228341 5.005455c1.2759421 3.6264096-.7319462 6.2307936-.7319462 6.2307936s-3.33101378-1.063068-4.57562561-4.5958455 1.0252884-6.6404031 1.0252884-6.6404031z" transform="matrix(.99254615 -.12186934 .12186934 .99254615 -3.956857 1.390213)" />
		<path d="m5.18946552 46.5010443s-2.88660882-1.9851147-3.06877509-5.7340961c-.17991419-3.7489897 2.88239579-6.0691015 2.88239579-6.0691015s2.47821761 2.1944419 2.66677966 6.0415939c.18630997 3.8471604-2.48040036 5.7616037-2.48040036 5.7616037z" transform="matrix(.97029573 -.2419219 .2419219 .97029573 -9.676459 2.390457)" />
		<path d="m17.037 11.5862857s-3.08025-1.0468571-3.98475-4.78857141c-.90675-3.74171429.84825-6.58742858.84825-6.58742858s3.573 1.31657143 4.455 4.96914286c.882 3.64571429-1.3185 6.40685713-1.3185 6.40685713z" />
		<path d="m18.5349669 30.4141046s-1.1478253-3.0933891 1.1312634-6.1656506c2.285837-3.0745414 5.5638917-3.4855184 5.5638917-3.4855184s1.2562836 3.6488836-.9711144 6.6457626c-2.2273961 2.9991646-5.7240407 3.0054064-5.7240407 3.0054064z" transform="matrix(.99862953 .05233596 -.05233596 .99862953 1.369233 -1.111849)" />
		<path d="m14.2371239 40.6055116c-.2446686.0431417-.4478517-3.9706191 2.4471415-6.448432 2.8972565-2.4732375 6.1232908-2.3807541 6.1232908-2.3807541s.4928057 4.7940049-2.3303363 7.2034741c-2.8231419 2.4094692-5.9954274 1.5825704-6.240096 1.625712z" transform="matrix(.98480775 .17364818 -.17364818 .98480775 6.574063 -2.65744)" />
		<path d="m13.33575 41.952c3.654-1.0354286 6.50925.6514286 6.50925.6514286s-1.179 3.6685714-4.74075 4.688c-3.56175 1.008-6.34725-1.1382857-6.34725-1.1382857s.927-3.1634286 4.57875-4.2011429z" />
	</g>
</svg>
